{
  "source": "C:\\Users\\Peter\\Desktop\\stuff\\MIUN\\quantitative_research\\video_compression\\videos\\UVG\\Beauty_1920x1080_120fps_420_8bit_YUV.y4m",
  "output": "C:\\Users\\Peter\\Desktop\\stuff\\MIUN\\quantitative_research\\video_compression\\compressed_videos\\UVG\\vp9\\8\\Beauty_1920x1080_120fps_420_8bit_YUV_vp9.webm",
  "codec": "vp9",
  "ok": "[yuv4mpegpipe @ 0000019f018752c0] Stream #0: not enough frames to estimate rate; consider increasing probesize\nInput #0, yuv4mpegpipe, from 'C:\\Users\\Peter\\Desktop\\stuff\\MIUN\\quantitative_research\\video_compression\\videos\\UVG\\Beauty_1920x1080_120fps_420_8bit_YUV.y4m':\n  Duration: 00:00:05.00, start: 0.000000, bitrate: 2985989 kb/s\n  Stream #0:0: Video: rawvideo (I420 / 0x30323449), yuv420p(progressive), 1920x1080, 120 fps, 120 tbr, 120 tbn\n[out#0/webm @ 0000019f01879b80] Codec AVOption b:a (set bitrate (in bits/s)) has not been used for any stream. The most likely reason is either wrong type (e.g. a video option with no video streams) or that it is a private option of some decoder which was not actually used for any stream.\nStream mapping:\n  Stream #0:0 -> #0:0 (rawvideo (native) -> vp9 (libvpx-vp9))\nPress [q] to stop, [?] for help\n[libvpx-vp9 @ 0000019f0187cec0] v1.15.2-100-g40561f514\nOutput #0, webm, to 'C:\\Users\\Peter\\Desktop\\stuff\\MIUN\\quantitative_research\\video_compression\\compressed_videos\\UVG\\vp9\\8\\Beauty_1920x1080_120fps_420_8bit_YUV_vp9.webm':\n  Metadata:\n    encoder         : Lavf62.3.100\n  Stream #0:0: Video: vp9, yuv420p(tv, progressive), 1920x1080, q=2-31, 8000 kb/s, 120 fps, 1k tbn\n    Metadata:\n      encoder         : Lavc62.11.100 libvpx-vp9\n    Side data:\n      cpb: bitrate max/min/avg: 0/0/0 buffer size: 8000000 vbv_delay: N/A\nframe=    0 fps=0.0 q=0.0 size=       0KiB time=N/A bitrate=N/A speed=N/A elapsed=0:00:00.54    \nframe=    0 fps=0.0 q=0.0 size=       0KiB time=N/A bitrate=N/A speed=N/A elapsed=0:00:01.11    \nframe=    5 fps=3.0 q=40.0 size=       0KiB time=00:00:00.04 bitrate=  92.4kbits/s speed=0.0252x elapsed=0:00:01.65    \nframe=    8 fps=3.7 q=37.0 size=       0KiB time=00:00:00.06 bitrate=  57.7kbits/s speed=0.0307x elapsed=0:00:02.17    \nframe=   12 fps=4.4 q=36.0 size=       0KiB time=00:00:00.10 bitrate=  38.5kbits/s speed=0.0364x elapsed=0:00:02.74    \nframe=   15 fps=4.5 q=37.0 size=       0KiB time=00:00:00.12 bitrate=  30.8kbits/s speed=0.0375x elapsed=0:00:03.33    \nframe=   17 fps=4.4 q=38.0 size=       0KiB time=00:00:00.13 bitrate=  28.9kbits/s speed=0.0344x elapsed=0:00:03.88    \nframe=   19 fps=4.3 q=38.0 size=       0KiB time=00:00:00.15 bitrate=  24.3kbits/s speed=0.0355x elapsed=0:00:04.45    \nframe=   21 fps=4.1 q=38.0 size=       0KiB time=00:00:00.17 bitrate=  22.0kbits/s speed=0.0345x elapsed=0:00:05.07    \nframe=   23 fps=4.1 q=39.0 size=       0KiB time=00:00:00.19 bitrate=  20.1kbits/s speed=0.034x elapsed=0:00:05.63    \nframe=   25 fps=4.0 q=39.0 size=       0KiB time=00:00:00.20 bitrate=  18.5kbits/s speed=0.0334x elapsed=0:00:06.23    \nframe=   28 fps=4.1 q=39.0 size=       0KiB time=00:00:00.23 bitrate=  16.5kbits/s speed=0.0342x elapsed=0:00:06.81    \nframe=   30 fps=4.0 q=40.0 size=       0KiB time=00:00:00.25 bitrate=  15.4kbits/s speed=0.0337x elapsed=0:00:07.42    \nframe=   32 fps=4.0 q=40.0 size=       0KiB time=00:00:00.25 bitrate=  14.9kbits/s speed=0.0321x elapsed=0:00:08.04    \nframe=   34 fps=3.9 q=39.0 size=       0KiB time=00:00:00.28 bitrate=  13.6kbits/s speed=0.0328x elapsed=0:00:08.64    \nframe=   37 fps=4.0 q=38.0 size=       0KiB time=00:00:00.30 bitrate=  12.5kbits/s speed=0.0335x elapsed=0:00:09.19    \nframe=   39 fps=4.0 q=38.0 size=       0KiB time=00:00:00.32 bitrate=  11.8kbits/s speed=0.0334x elapsed=0:00:09.73    \nframe=   41 fps=4.0 q=38.0 size=       0KiB time=00:00:00.34 bitrate=  11.3kbits/s speed=0.0332x elapsed=0:00:10.27    \nframe=   43 fps=4.0 q=38.0 size=       0KiB time=00:00:00.35 bitrate=  10.7kbits/s speed=0.033x elapsed=0:00:10.84    \nframe=   45 fps=3.9 q=38.0 size=       0KiB time=00:00:00.37 bitrate=  10.3kbits/s speed=0.0328x elapsed=0:00:11.43    \nframe=   45 fps=3.7 q=38.0 size=       0KiB time=00:00:00.37 bitrate=  10.3kbits/s speed=0.0312x elapsed=0:00:12.03    \nframe=   45 fps=3.6 q=38.0 size=       0KiB time=00:00:00.37 bitrate=  10.3kbits/s speed=0.0298x elapsed=0:00:12.57    \nframe=   47 fps=3.6 q=39.0 size=       0KiB time=00:00:00.39 bitrate=   9.8kbits/s speed=0.0299x elapsed=0:00:13.10    \nframe=   48 fps=3.5 q=39.0 size=       0KiB time=00:00:00.40 bitrate=   9.6kbits/s speed=0.0293x elapsed=0:00:13.65    \nframe=   51 fps=3.6 q=39.0 size=       0KiB time=00:00:00.41 bitrate=   9.2kbits/s speed=0.0292x elapsed=0:00:14.24    \nframe=   53 fps=3.6 q=39.0 size=       0KiB time=00:00:00.44 bitrate=   8.7kbits/s speed=0.0297x elapsed=0:00:14.88    \nframe=   55 fps=3.6 q=38.0 size=       0KiB time=00:00:00.45 bitrate=   8.4kbits/s speed=0.0296x elapsed=0:00:15.46    \nframe=   57 fps=3.6 q=38.0 size=       0KiB time=00:00:00.47 bitrate=   8.1kbits/s speed=0.0297x elapsed=0:00:15.99    \nframe=   59 fps=3.6 q=38.0 size=       0KiB time=00:00:00.49 bitrate=   7.8kbits/s speed=0.0298x elapsed=0:00:16.51    \nframe=   60 fps=3.5 q=38.0 size=       0KiB time=00:00:00.50 bitrate=   7.7kbits/s speed=0.0293x elapsed=0:00:17.03    \nframe=   60 fps=3.4 q=38.0 size=       0KiB time=00:00:00.50 bitrate=   7.7kbits/s speed=0.0285x elapsed=0:00:17.55    \nframe=   62 fps=3.4 q=38.0 size=       0KiB time=00:00:00.50 bitrate=   7.6kbits/s speed=0.028x elapsed=0:00:18.12    \nframe=   64 fps=3.4 q=36.0 size=       0KiB time=00:00:00.53 bitrate=   7.2kbits/s speed=0.0284x elapsed=0:00:18.75    \nframe=   66 fps=3.4 q=36.0 size=       0KiB time=00:00:00.55 bitrate=   7.0kbits/s speed=0.0284x elapsed=0:00:19.35    \nframe=   69 fps=3.5 q=36.0 size=       0KiB time=00:00:00.56 bitrate=   6.8kbits/s speed=0.0285x elapsed=0:00:19.88    \nframe=   71 fps=3.5 q=36.0 size=       0KiB time=00:00:00.59 bitrate=   6.5kbits/s speed=0.0289x elapsed=0:00:20.44    \nframe=   74 fps=3.5 q=37.0 size=       0KiB time=00:00:00.61 bitrate=   6.2kbits/s speed=0.0294x elapsed=0:00:20.95    \nframe=   75 fps=3.5 q=37.0 size=       0KiB time=00:00:00.62 bitrate=   6.2kbits/s speed=0.0291x elapsed=0:00:21.50    \nframe=   77 fps=3.5 q=36.0 size=       0KiB time=00:00:00.64 bitrate=   6.0kbits/s speed=0.029x elapsed=0:00:22.12    \nframe=   80 fps=3.5 q=37.0 size=       0KiB time=00:00:00.66 bitrate=   5.8kbits/s speed=0.0294x elapsed=0:00:22.66    \nframe=   83 fps=3.6 q=36.0 size=       0KiB time=00:00:00.69 bitrate=   5.6kbits/s speed=0.0298x elapsed=0:00:23.17    \nframe=   87 fps=3.7 q=37.0 size=       0KiB time=00:00:00.72 bitrate=   5.3kbits/s speed=0.0305x elapsed=0:00:23.76    \nframe=   90 fps=3.7 q=36.0 size=       0KiB time=00:00:00.75 bitrate=   5.1kbits/s speed=0.0307x elapsed=0:00:24.43    \nframe=   90 fps=3.6 q=36.0 size=       0KiB time=00:00:00.75 bitrate=   5.1kbits/s speed=0.03x elapsed=0:00:25.00    \nframe=   93 fps=3.6 q=36.0 size=       0KiB time=00:00:00.77 bitrate=   5.0kbits/s speed=0.0303x elapsed=0:00:25.57    \nframe=   96 fps=3.7 q=36.0 size=       0KiB time=00:00:00.80 bitrate=   4.8kbits/s speed=0.0306x elapsed=0:00:26.17    \nframe=  100 fps=3.7 q=37.0 size=       0KiB time=00:00:00.82 bitrate=   4.7kbits/s speed=0.0308x elapsed=0:00:26.74    \nframe=  103 fps=3.8 q=38.0 size=       0KiB time=00:00:00.85 bitrate=   4.5kbits/s speed=0.0315x elapsed=0:00:27.28    \nframe=  105 fps=3.8 q=38.0 size=       0KiB time=00:00:00.87 bitrate=   4.4kbits/s speed=0.0315x elapsed=0:00:27.82    \nframe=  109 fps=3.8 q=40.0 size=       0KiB time=00:00:00.90 bitrate=   4.2kbits/s speed=0.032x elapsed=0:00:28.35    \nframe=  112 fps=3.9 q=40.0 size=       0KiB time=00:00:00.93 bitrate=   4.1kbits/s speed=0.0323x elapsed=0:00:28.90    \nframe=  115 fps=3.9 q=40.0 size=       0KiB time=00:00:00.95 bitrate=   4.0kbits/s speed=0.0326x elapsed=0:00:29.44    \nframe=  116 fps=3.9 q=40.0 size=       0KiB time=00:00:00.96 bitrate=   4.0kbits/s speed=0.0322x elapsed=0:00:29.99    \nframe=  119 fps=3.9 q=38.0 size=       0KiB time=00:00:00.99 bitrate=   3.9kbits/s speed=0.0324x elapsed=0:00:30.58    \nframe=  122 fps=3.9 q=38.0 size=       0KiB time=00:00:01.01 bitrate=   3.8kbits/s speed=0.0326x elapsed=0:00:31.15    \nframe=  125 fps=3.9 q=38.0 size=       0KiB time=00:00:01.04 bitrate=   3.7kbits/s speed=0.0328x elapsed=0:00:31.75    \nframe=  128 fps=4.0 q=38.0 size=       0KiB time=00:00:01.06 bitrate=   3.6kbits/s speed=0.033x elapsed=0:00:32.32    \nframe=  130 fps=3.9 q=36.0 size=     768KiB time=00:00:01.08 bitrate=5807.5kbits/s speed=0.0329x elapsed=0:00:32.92    \nframe=  133 fps=4.0 q=36.0 size=     768KiB time=00:00:01.10 bitrate=5676.5kbits/s speed=0.0331x elapsed=0:00:33.45    \nframe=  137 fps=4.0 q=36.0 size=     768KiB time=00:00:01.14 bitrate=5510.8kbits/s speed=0.0336x elapsed=0:00:33.98    \nframe=  140 fps=4.1 q=36.0 size=     768KiB time=00:00:01.16 bitrate=5392.7kbits/s speed=0.0338x elapsed=0:00:34.51    \nframe=  143 fps=4.1 q=37.0 size=     768KiB time=00:00:01.19 bitrate=5279.5kbits/s speed=0.034x elapsed=0:00:35.03    \nframe=  143 fps=4.0 q=37.0 size=     768KiB time=00:00:01.19 bitrate=5279.5kbits/s speed=0.0335x elapsed=0:00:35.59    \nframe=  147 fps=4.1 q=36.0 size=     768KiB time=00:00:01.22 bitrate=5135.9kbits/s speed=0.0339x elapsed=0:00:36.14    \nframe=  150 fps=4.1 q=35.0 size=     768KiB time=00:00:01.25 bitrate=5033.2kbits/s speed=0.0341x elapsed=0:00:36.69    \nframe=  153 fps=4.1 q=34.0 size=     768KiB time=00:00:01.27 bitrate=4934.5kbits/s speed=0.0342x elapsed=0:00:37.27    \nframe=  156 fps=4.1 q=34.0 size=     768KiB time=00:00:01.30 bitrate=4839.6kbits/s speed=0.0343x elapsed=0:00:37.91    \nframe=  158 fps=4.1 q=34.0 size=     768KiB time=00:00:01.31 bitrate=4778.3kbits/s speed=0.0341x elapsed=0:00:38.55    \nframe=  161 fps=4.1 q=33.0 size=     768KiB time=00:00:01.34 bitrate=4689.3kbits/s speed=0.0342x elapsed=0:00:39.18    \nframe=  163 fps=4.1 q=33.0 size=     768KiB time=00:00:01.35 bitrate=4631.7kbits/s speed=0.0342x elapsed=0:00:39.75    \nframe=  166 fps=4.1 q=35.0 size=     768KiB time=00:00:01.37 bitrate=4575.6kbits/s speed=0.0341x elapsed=0:00:40.29    \nframe=  169 fps=4.1 q=36.0 size=     768KiB time=00:00:01.40 bitrate=4467.3kbits/s speed=0.0344x elapsed=0:00:40.97    \nframe=  172 fps=4.1 q=35.0 size=     768KiB time=00:00:01.43 bitrate=4389.4kbits/s speed=0.0345x elapsed=0:00:41.53    \nframe=  173 fps=4.1 q=35.0 size=     768KiB time=00:00:01.44 bitrate=4364.0kbits/s speed=0.0343x elapsed=0:00:42.08    \nframe=  173 fps=4.1 q=35.0 size=     768KiB time=00:00:01.44 bitrate=4364.0kbits/s speed=0.0338x elapsed=0:00:42.64    \nframe=  176 fps=4.1 q=35.0 size=     768KiB time=00:00:01.46 bitrate=4289.6kbits/s speed=0.034x elapsed=0:00:43.15    \nframe=  179 fps=4.1 q=35.0 size=     768KiB time=00:00:01.49 bitrate=4217.7kbits/s speed=0.0341x elapsed=0:00:43.68    \nframe=  182 fps=4.1 q=35.0 size=     768KiB time=00:00:01.51 bitrate=4148.2kbits/s speed=0.0343x elapsed=0:00:44.22    \nframe=  185 fps=4.1 q=35.0 size=     768KiB time=00:00:01.54 bitrate=4080.9kbits/s speed=0.0345x elapsed=0:00:44.74    \nframe=  188 fps=4.2 q=35.0 size=     768KiB time=00:00:01.56 bitrate=4015.8kbits/s speed=0.0346x elapsed=0:00:45.28    \nframe=  188 fps=4.1 q=35.0 size=     768KiB time=00:00:01.56 bitrate=4015.8kbits/s speed=0.0342x elapsed=0:00:45.81    \nframe=  191 fps=4.1 q=35.0 size=     768KiB time=00:00:01.59 bitrate=3952.7kbits/s speed=0.0343x elapsed=0:00:46.37    \nframe=  194 fps=4.1 q=34.0 size=     768KiB time=00:00:01.61 bitrate=3891.6kbits/s speed=0.0345x elapsed=0:00:46.89    \nframe=  197 fps=4.2 q=34.0 size=     768KiB time=00:00:01.64 bitrate=3832.4kbits/s speed=0.0346x elapsed=0:00:47.46    \nframe=  199 fps=4.1 q=35.0 size=     768KiB time=00:00:01.65 bitrate=3793.8kbits/s speed=0.0345x elapsed=0:00:48.00    \nframe=  203 fps=4.2 q=36.0 size=     768KiB time=00:00:01.69 bitrate=3719.1kbits/s speed=0.0348x elapsed=0:00:48.56    \nframe=  203 fps=4.1 q=36.0 size=     768KiB time=00:00:01.69 bitrate=3719.1kbits/s speed=0.0345x elapsed=0:00:49.09    \nframe=  205 fps=4.1 q=36.0 size=     768KiB time=00:00:01.70 bitrate=3682.8kbits/s speed=0.0344x elapsed=0:00:49.69    \nframe=  208 fps=4.1 q=36.0 size=     768KiB time=00:00:01.73 bitrate=3629.7kbits/s speed=0.0345x elapsed=0:00:50.26    \nframe=  211 fps=4.2 q=36.0 size=     768KiB time=00:00:01.75 bitrate=3578.1kbits/s speed=0.0346x elapsed=0:00:50.82    \nframe=  214 fps=4.2 q=37.0 size=     768KiB time=00:00:01.78 bitrate=3527.9kbits/s speed=0.0347x elapsed=0:00:51.35    \nframe=  217 fps=4.2 q=37.0 size=     768KiB time=00:00:01.80 bitrate=3479.1kbits/s speed=0.0348x elapsed=0:00:51.91    \nframe=  218 fps=4.2 q=37.0 size=     768KiB time=00:00:01.81 bitrate=3463.2kbits/s speed=0.0346x elapsed=0:00:52.43    \nframe=  221 fps=4.2 q=36.0 size=     768KiB time=00:00:01.84 bitrate=3416.2kbits/s speed=0.0348x elapsed=0:00:52.97    \nframe=  223 fps=4.2 q=36.0 size=     768KiB time=00:00:01.85 bitrate=3385.5kbits/s speed=0.0347x elapsed=0:00:53.49    \nframe=  226 fps=4.2 q=37.0 size=     768KiB time=00:00:01.88 bitrate=3340.6kbits/s speed=0.0349x elapsed=0:00:54.03    \nframe=  229 fps=4.2 q=37.0 size=     768KiB time=00:00:01.90 bitrate=3296.8kbits/s speed=0.0349x elapsed=0:00:54.60    \nframe=  232 fps=4.2 q=37.0 size=     768KiB time=00:00:01.93 bitrate=3254.2kbits/s speed=0.0351x elapsed=0:00:55.15    \nframe=  233 fps=4.2 q=37.0 size=     768KiB time=00:00:01.94 bitrate=3240.2kbits/s speed=0.0348x elapsed=0:00:55.73    \nframe=  236 fps=4.2 q=39.0 size=     768KiB time=00:00:01.96 bitrate=3199.0kbits/s speed=0.0349x elapsed=0:00:56.28    \nframe=  239 fps=4.2 q=38.0 size=     768KiB time=00:00:01.99 bitrate=3158.9kbits/s speed=0.0351x elapsed=0:00:56.80    \nframe=  242 fps=4.2 q=38.0 size=     768KiB time=00:00:02.01 bitrate=3119.7kbits/s speed=0.0352x elapsed=0:00:57.34    \nframe=  244 fps=4.2 q=38.0 size=     768KiB time=00:00:02.03 bitrate=3094.2kbits/s speed=0.0351x elapsed=0:00:57.92    \nframe=  246 fps=4.2 q=37.0 size=     768KiB time=00:00:02.04 bitrate=3081.5kbits/s speed=0.0349x elapsed=0:00:58.54    \nframe=  249 fps=4.2 q=36.0 size=     768KiB time=00:00:02.07 bitrate=3032.0kbits/s speed=0.0351x elapsed=0:00:59.12    \nframe=  252 fps=4.2 q=35.0 size=     768KiB time=00:00:02.10 bitrate=2995.9kbits/s speed=0.0352x elapsed=0:00:59.67    \nframe=  255 fps=4.2 q=35.0 size=     768KiB time=00:00:02.12 bitrate=2960.7kbits/s speed=0.0353x elapsed=0:01:00.25    \nframe=  257 fps=4.2 q=21.0 size=     768KiB time=00:00:02.13 bitrate=2949.1kbits/s speed=0.0351x elapsed=0:01:00.76    \nframe=  260 fps=4.2 q=36.0 size=    2048KiB time=00:00:02.16 bitrate=7743.3kbits/s speed=0.0354x elapsed=0:01:01.28    \nframe=  264 fps=4.3 q=36.0 size=    2048KiB time=00:00:02.20 bitrate=7626.0kbits/s speed=0.0356x elapsed=0:01:01.81    \nframe=  267 fps=4.3 q=38.0 size=    2048KiB time=00:00:02.22 bitrate=7540.3kbits/s speed=0.0357x elapsed=0:01:02.35    \nframe=  271 fps=4.3 q=38.0 size=    2048KiB time=00:00:02.25 bitrate=7429.0kbits/s speed=0.0359x elapsed=0:01:02.90    \nframe=  271 fps=4.3 q=38.0 size=    2048KiB time=00:00:02.25 bitrate=7429.0kbits/s speed=0.0356x elapsed=0:01:03.42    \nframe=  274 fps=4.3 q=40.0 size=    2048KiB time=00:00:02.28 bitrate=7347.7kbits/s speed=0.0357x elapsed=0:01:04.00    \nframe=  277 fps=4.3 q=42.0 size=    2048KiB time=00:00:02.30 bitrate=7268.1kbits/s speed=0.0358x elapsed=0:01:04.55    \nframe=  280 fps=4.3 q=42.0 size=    2048KiB time=00:00:02.33 bitrate=7190.2kbits/s speed=0.0358x elapsed=0:01:05.12    \nframe=  284 fps=4.3 q=42.0 size=    2048KiB time=00:00:02.35 bitrate=7114.0kbits/s speed=0.0359x elapsed=0:01:05.68    \nframe=  286 fps=4.3 q=41.0 size=    2048KiB time=00:00:02.38 bitrate=7039.4kbits/s speed=0.036x elapsed=0:01:06.27    \nframe=  288 fps=4.3 q=39.0 size=    2048KiB time=00:00:02.39 bitrate=7014.9kbits/s speed=0.0358x elapsed=0:01:06.81    \nframe=  291 fps=4.3 q=38.0 size=    2048KiB time=00:00:02.42 bitrate=6918.4kbits/s speed=0.036x elapsed=0:01:07.39    \nframe=  294 fps=4.3 q=37.0 size=    2048KiB time=00:00:02.45 bitrate=6847.8kbits/s speed=0.0361x elapsed=0:01:07.91    \nframe=  298 fps=4.4 q=36.0 size=    2048KiB time=00:00:02.48 bitrate=6755.9kbits/s speed=0.0363x elapsed=0:01:08.46    \nframe=  301 fps=4.4 q=35.0 size=    2048KiB time=00:00:02.50 bitrate=6688.6kbits/s speed=0.0363x elapsed=0:01:09.05    \nframe=  301 fps=4.3 q=35.0 size=    2048KiB time=00:00:02.50 bitrate=6688.6kbits/s speed=0.036x elapsed=0:01:09.58    \nframe=  303 fps=4.3 q=36.0 size=    2048KiB time=00:00:02.52 bitrate=6644.4kbits/s speed=0.036x elapsed=0:01:10.10    \nframe=  306 fps=4.3 q=36.0 size=    2048KiB time=00:00:02.55 bitrate=6579.3kbits/s speed=0.0361x elapsed=0:01:10.61    \nframe=  309 fps=4.3 q=36.0 size=    2048KiB time=00:00:02.57 bitrate=6515.4kbits/s speed=0.0362x elapsed=0:01:11.13    \nframe=  312 fps=4.4 q=35.0 size=    2048KiB time=00:00:02.60 bitrate=6452.8kbits/s speed=0.0363x elapsed=0:01:11.67    \nframe=  315 fps=4.4 q=35.0 size=    2048KiB time=00:00:02.62 bitrate=6391.3kbits/s speed=0.0363x elapsed=0:01:12.22    \nframe=  316 fps=4.3 q=35.0 size=    2048KiB time=00:00:02.63 bitrate=6371.1kbits/s speed=0.0362x elapsed=0:01:12.78    \nframe=  318 fps=4.3 q=36.0 size=    2048KiB time=00:00:02.65 bitrate=6331.0kbits/s speed=0.0361x elapsed=0:01:13.36    \nframe=  321 fps=4.3 q=36.0 size=    2048KiB time=00:00:02.67 bitrate=6271.9kbits/s speed=0.0362x elapsed=0:01:13.89    \nframe=  324 fps=4.4 q=37.0 size=    2048KiB time=00:00:02.70 bitrate=6213.8kbits/s speed=0.0363x elapsed=0:01:14.40    \nframe=  328 fps=4.4 q=37.0 size=    2048KiB time=00:00:02.73 bitrate=6138.0kbits/s speed=0.0365x elapsed=0:01:14.95    \nframe=  331 fps=4.4 q=37.0 size=    2048KiB time=00:00:02.75 bitrate=6082.4kbits/s speed=0.0365x elapsed=0:01:15.47    \nframe=  332 fps=4.4 q=20.0 size=    2048KiB time=00:00:02.75 bitrate=6082.4kbits/s speed=0.0363x elapsed=0:01:16.04    \nframe=  335 fps=4.4 q=37.0 size=    2048KiB time=00:00:02.79 bitrate=6009.7kbits/s speed=0.0364x elapsed=0:01:16.61    \nframe=  339 fps=4.4 q=37.0 size=    2048KiB time=00:00:02.82 bitrate=5938.8kbits/s speed=0.0366x elapsed=0:01:17.17    \nframe=  342 fps=4.4 q=37.0 size=    2048KiB time=00:00:02.85 bitrate=5886.7kbits/s speed=0.0367x elapsed=0:01:17.73    \nframe=  346 fps=4.4 q=36.0 size=    2048KiB time=00:00:02.88 bitrate=5818.7kbits/s speed=0.0368x elapsed=0:01:18.33    \nframe=  346 fps=4.4 q=36.0 size=    2048KiB time=00:00:02.88 bitrate=5818.7kbits/s speed=0.0365x elapsed=0:01:18.90    \nframe=  350 fps=4.4 q=37.0 size=    2048KiB time=00:00:02.91 bitrate=5752.2kbits/s speed=0.0367x elapsed=0:01:19.42    \nframe=  353 fps=4.4 q=38.0 size=    2048KiB time=00:00:02.94 bitrate=5703.3kbits/s speed=0.0368x elapsed=0:01:20.02    \nframe=  356 fps=4.4 q=39.0 size=    2048KiB time=00:00:02.96 bitrate=5655.2kbits/s speed=0.0368x elapsed=0:01:20.55    \nframe=  360 fps=4.4 q=39.0 size=    2048KiB time=00:00:03.00 bitrate=5592.4kbits/s speed=0.037x elapsed=0:01:21.13    \nframe=  361 fps=4.4 q=39.0 size=    2048KiB time=00:00:03.00 bitrate=5576.9kbits/s speed=0.0368x elapsed=0:01:21.71    \nframe=  364 fps=4.4 q=38.0 size=    2048KiB time=00:00:03.03 bitrate=5531.0kbits/s speed=0.0369x elapsed=0:01:22.26    \nframe=  368 fps=4.4 q=39.0 size=    2048KiB time=00:00:03.05 bitrate=5485.7kbits/s speed=0.0369x elapsed=0:01:22.85    \nframe=  372 fps=4.5 q=38.0 size=    2048KiB time=00:00:03.09 bitrate=5426.6kbits/s speed=0.0371x elapsed=0:01:23.43    \nframe=  372 fps=4.4 q=38.0 size=    2048KiB time=00:00:03.10 bitrate=5412.0kbits/s speed=0.0369x elapsed=0:01:24.02    \nframe=  375 fps=4.4 q=38.0 size=    2048KiB time=00:00:03.12 bitrate=5368.7kbits/s speed=0.0369x elapsed=0:01:24.59    \nframe=  379 fps=4.5 q=38.0 size=    2048KiB time=00:00:03.15 bitrate=5312.0kbits/s speed=0.0371x elapsed=0:01:25.14    \nframe=  383 fps=4.5 q=39.0 size=    2048KiB time=00:00:03.19 bitrate=5256.6kbits/s speed=0.0372x elapsed=0:01:25.69    \nframe=  384 fps=4.5 q=39.0 size=    2048KiB time=00:00:03.20 bitrate=5242.9kbits/s speed=0.0371x elapsed=0:01:26.24    \nframe=  388 fps=4.5 q=38.0 size=    3072KiB time=00:00:03.23 bitrate=7783.2kbits/s speed=0.0372x elapsed=0:01:26.80    \nframe=  391 fps=4.5 q=39.0 size=    3072KiB time=00:00:03.25 bitrate=7723.5kbits/s speed=0.0373x elapsed=0:01:27.36    \nframe=  395 fps=4.5 q=40.0 size=    3072KiB time=00:00:03.29 bitrate=7645.3kbits/s speed=0.0374x elapsed=0:01:27.90    \nframe=  398 fps=4.5 q=40.0 size=    3072KiB time=00:00:03.31 bitrate=7587.7kbits/s speed=0.0375x elapsed=0:01:28.43    \nframe=  399 fps=4.5 q=39.0 size=    3072KiB time=00:00:03.32 bitrate=7568.7kbits/s speed=0.0374x elapsed=0:01:28.97    \nframe=  403 fps=4.5 q=38.0 size=    3072KiB time=00:00:03.35 bitrate=7493.5kbits/s speed=0.0375x elapsed=0:01:29.48    \nframe=  406 fps=4.5 q=37.0 size=    3072KiB time=00:00:03.38 bitrate=7438.2kbits/s speed=0.0376x elapsed=0:01:30.08    \nframe=  410 fps=4.5 q=37.0 size=    3072KiB time=00:00:03.41 bitrate=7365.6kbits/s speed=0.0377x elapsed=0:01:30.62    \nframe=  413 fps=4.5 q=36.0 size=    3072KiB time=00:00:03.44 bitrate=7312.1kbits/s speed=0.0377x elapsed=0:01:31.23    \nframe=  414 fps=4.5 q=36.0 size=    3072KiB time=00:00:03.45 bitrate=7294.4kbits/s speed=0.0376x elapsed=0:01:31.78    \nframe=  417 fps=4.5 q=36.0 size=    3072KiB time=00:00:03.47 bitrate=7242.0kbits/s speed=0.0376x elapsed=0:01:32.39    \nframe=  420 fps=4.5 q=37.0 size=    3072KiB time=00:00:03.50 bitrate=7190.2kbits/s speed=0.0376x elapsed=0:01:32.96    \nframe=  423 fps=4.5 q=37.0 size=    3072KiB time=00:00:03.52 bitrate=7139.2kbits/s speed=0.0377x elapsed=0:01:33.51    \nframe=  427 fps=4.5 q=38.0 size=    3072KiB time=00:00:03.55 bitrate=7072.4kbits/s speed=0.0378x elapsed=0:01:34.03    \nframe=  429 fps=4.5 q=38.0 size=    3072KiB time=00:00:03.57 bitrate=7039.4kbits/s speed=0.0378x elapsed=0:01:34.58    \nframe=  432 fps=4.5 q=38.0 size=    3072KiB time=00:00:03.60 bitrate=6990.5kbits/s speed=0.0379x elapsed=0:01:35.11    \nframe=  436 fps=4.6 q=38.0 size=    3072KiB time=00:00:03.62 bitrate=6942.3kbits/s speed=0.0379x elapsed=0:01:35.68    \nframe=  439 fps=4.6 q=38.0 size=    3072KiB time=00:00:03.65 bitrate=6879.0kbits/s speed=0.038x elapsed=0:01:36.37    \nframe=  442 fps=4.6 q=39.0 size=    3072KiB time=00:00:03.68 bitrate=6832.4kbits/s speed=0.038x elapsed=0:01:36.92    \nframe=  444 fps=4.6 q=39.0 size=    3072KiB time=00:00:03.70 bitrate=6801.6kbits/s speed=0.038x elapsed=0:01:37.46    \nframe=  445 fps=4.5 q=23.0 size=    3072KiB time=00:00:03.70 bitrate=6786.3kbits/s speed=0.0378x elapsed=0:01:38.05    \nframe=  448 fps=4.5 q=38.0 size=    3072KiB time=00:00:03.73 bitrate=6740.8kbits/s speed=0.0379x elapsed=0:01:38.59    \nframe=  451 fps=4.5 q=38.0 size=    3072KiB time=00:00:03.75 bitrate=6696.0kbits/s speed=0.0379x elapsed=0:01:39.15    \nframe=  453 fps=4.5 q=37.0 size=    3072KiB time=00:00:03.77 bitrate=6666.4kbits/s speed=0.0379x elapsed=0:01:39.69    \nframe=  456 fps=4.6 q=37.0 size=    3072KiB time=00:00:03.80 bitrate=6622.6kbits/s speed=0.0379x elapsed=0:01:40.21    \nframe=  459 fps=4.6 q=37.0 size=    3072KiB time=00:00:03.81 bitrate=6593.7kbits/s speed=0.0379x elapsed=0:01:40.76    \nframe=  459 fps=4.5 q=37.0 size=    3072KiB time=00:00:03.82 bitrate=6579.3kbits/s speed=0.0377x elapsed=0:01:41.40    \nframe=  463 fps=4.5 q=36.0 size=    3072KiB time=00:00:03.85 bitrate=6536.6kbits/s speed=0.0378x elapsed=0:01:41.92    \nframe=  466 fps=4.5 q=35.0 size=    3072KiB time=00:00:03.88 bitrate=6480.5kbits/s speed=0.0379x elapsed=0:01:42.52    \nframe=  469 fps=4.5 q=35.0 size=    3072KiB time=00:00:03.90 bitrate=6439.0kbits/s speed=0.0379x elapsed=0:01:43.10    \nframe=  472 fps=4.6 q=35.0 size=    3072KiB time=00:00:03.92 bitrate=6411.7kbits/s speed=0.0378x elapsed=0:01:43.73    \nframe=  474 fps=4.5 q=36.0 size=    3072KiB time=00:00:03.95 bitrate=6371.1kbits/s speed=0.0379x elapsed=0:01:44.28    \nframe=  474 fps=4.5 q=36.0 size=    3072KiB time=00:00:03.95 bitrate=6371.1kbits/s speed=0.0377x elapsed=0:01:44.84    \nframe=  477 fps=4.5 q=35.0 size=    3072KiB time=00:00:03.97 bitrate=6331.0kbits/s speed=0.0377x elapsed=0:01:45.43    \nframe=  479 fps=4.5 q=35.0 size=    3072KiB time=00:00:03.99 bitrate=6304.6kbits/s speed=0.0376x elapsed=0:01:46.02    \nframe=  482 fps=4.5 q=36.0 size=    3072KiB time=00:00:04.01 bitrate=6265.3kbits/s speed=0.0377x elapsed=0:01:46.60    \nframe=  485 fps=4.5 q=36.0 size=    3072KiB time=00:00:04.04 bitrate=6226.6kbits/s speed=0.0377x elapsed=0:01:47.14    \nframe=  488 fps=4.5 q=36.0 size=    3072KiB time=00:00:04.06 bitrate=6188.3kbits/s speed=0.0378x elapsed=0:01:47.71    \nframe=  489 fps=4.5 q=36.0 size=    3072KiB time=00:00:04.07 bitrate=6175.7kbits/s speed=0.0376x elapsed=0:01:48.29    \nframe=  492 fps=4.5 q=38.0 size=    3072KiB time=00:00:04.10 bitrate=6138.0kbits/s speed=0.0376x elapsed=0:01:48.93    \nframe=  496 fps=4.5 q=39.0 size=    3072KiB time=00:00:04.13 bitrate=6088.5kbits/s speed=0.0378x elapsed=0:01:49.45    \nframe=  500 fps=4.5 q=39.0 size=    3072KiB time=00:00:04.16 bitrate=6039.8kbits/s speed=0.0379x elapsed=0:01:50.00    \nframe=  501 fps=4.5 q=21.0 size=    3072KiB time=00:00:04.17 bitrate=6027.7kbits/s speed=0.0378x elapsed=0:01:50.53    \nframe=  505 fps=4.5 q=37.0 size=    3072KiB time=00:00:04.20 bitrate=5980.0kbits/s speed=0.0379x elapsed=0:01:51.10    \nframe=  509 fps=4.6 q=36.0 size=    3072KiB time=00:00:04.24 bitrate=5933.0kbits/s speed=0.038x elapsed=0:01:51.67    \nframe=  512 fps=4.6 q=36.0 size=    3072KiB time=00:00:04.26 bitrate=5898.2kbits/s speed=0.038x elapsed=0:01:52.22    \nframe=  517 fps=4.6 q=36.0 size=    4096KiB time=00:00:04.30 bitrate=7788.3kbits/s speed=0.0382x elapsed=0:01:52.79    \nframe=  521 fps=4.6 q=36.0 size=    4096KiB time=00:00:04.33 bitrate=7743.3kbits/s speed=0.0382x elapsed=0:01:53.30    \nframe=  526 fps=4.6 q=36.0 size=    4096KiB time=00:00:04.38 bitrate=7655.0kbits/s speed=0.0385x elapsed=0:01:53.87    \nframe=  527 fps=4.6 q=36.0 size=    4096KiB time=00:00:04.39 bitrate=7640.5kbits/s speed=0.0384x elapsed=0:01:54.44    \nframe=  531 fps=4.6 q=35.0 size=    4096KiB time=00:00:04.42 bitrate=7582.9kbits/s speed=0.0385x elapsed=0:01:54.98    \nframe=  535 fps=4.6 q=36.0 size=    4096KiB time=00:00:04.45 bitrate=7526.2kbits/s speed=0.0386x elapsed=0:01:55.51    \nframe=  539 fps=4.6 q=35.0 size=    4096KiB time=00:00:04.49 bitrate=7470.4kbits/s speed=0.0387x elapsed=0:01:56.07    \nframe=  542 fps=4.6 q=35.0 size=    4096KiB time=00:00:04.51 bitrate=7429.0kbits/s speed=0.0387x elapsed=0:01:56.61    \nframe=  544 fps=4.6 q=35.0 size=    4096KiB time=00:00:04.53 bitrate=7401.7kbits/s speed=0.0387x elapsed=0:01:57.21    \nframe=  548 fps=4.7 q=35.0 size=    4096KiB time=00:00:04.56 bitrate=7347.7kbits/s speed=0.0388x elapsed=0:01:57.75    \nframe=  552 fps=4.7 q=35.0 size=    4096KiB time=00:00:04.60 bitrate=7294.4kbits/s speed=0.0389x elapsed=0:01:58.27    \nframe=  557 fps=4.7 q=36.0 size=    4096KiB time=00:00:04.64 bitrate=7229.0kbits/s speed=0.0391x elapsed=0:01:58.79    \nframe=  559 fps=4.7 q=35.0 size=    4096KiB time=00:00:04.65 bitrate=7203.1kbits/s speed=0.039x elapsed=0:01:59.33    \nframe=  563 fps=4.7 q=35.0 size=    4096KiB time=00:00:04.68 bitrate=7164.6kbits/s speed=0.0391x elapsed=0:01:59.85    \nframe=  567 fps=4.7 q=35.0 size=    4096KiB time=00:00:04.71 bitrate=7114.0kbits/s speed=0.0392x elapsed=0:02:00.41    \nframe=  570 fps=4.7 q=35.0 size=    4096KiB time=00:00:04.75 bitrate=7064.1kbits/s speed=0.0393x elapsed=0:02:00.98    \nframe=  572 fps=4.7 q=36.0 size=    4096KiB time=00:00:04.76 bitrate=7039.4kbits/s speed=0.0392x elapsed=0:02:01.51    \nframe=  575 fps=4.7 q=35.0 size=    4096KiB time=00:00:04.79 bitrate=7002.7kbits/s speed=0.0393x elapsed=0:02:02.05    \nframe=  576 fps=4.7 q=36.0 size=    4096KiB time=00:00:04.80 bitrate=6990.5kbits/s speed=0.0392x elapsed=0:02:02.59    \nframe=  576 fps=4.7 q=36.0 size=    4096KiB time=00:00:04.80 bitrate=6990.5kbits/s speed=0.039x elapsed=0:02:03.14    \nframe=  576 fps=4.7 q=36.0 size=    4096KiB time=00:00:04.80 bitrate=6990.5kbits/s speed=0.0388x elapsed=0:02:03.68    \nframe=  576 fps=4.6 q=36.0 size=    4096KiB time=00:00:04.80 bitrate=6990.5kbits/s speed=0.0386x elapsed=0:02:04.25    \nframe=  576 fps=4.6 q=36.0 size=    4096KiB time=00:00:04.80 bitrate=6990.5kbits/s speed=0.0385x elapsed=0:02:04.80    \nframe=  576 fps=4.6 q=36.0 size=    4096KiB time=00:00:04.80 bitrate=6990.5kbits/s speed=0.0383x elapsed=0:02:05.36    \n[out#0/webm @ 0000019f01879b80] video:5085KiB audio:0KiB subtitle:0KiB other streams:0KiB global headers:0KiB muxing overhead: 0.093603%\nframe=  600 fps=4.8 q=35.0 Lsize=    5090KiB time=00:00:05.00 bitrate=8339.2kbits/s speed=0.0398x elapsed=0:02:05.78    \n",
  "seconds": 126.10130286216736,
  "probe_out": {}
}